<?xml version="1.0" encoding="utf-8"?>
<?xml-stylesheet type="text/xsl" href="rss1.xsl"?>
<rss version="2.0" xmlns:atom="http://www.w3.org/2005/Atom" xmlns:content="http://purl.org/rss/1.0/modules/content/" xmlns:dc="http://purl.org/dc/elements/1.1/" xmlns:media="http://search.yahoo.com/mrss/">
<channel>
 <title>Getty</title>
 <link>http://www.gettyimg.com/</link>
 <atom:link href="http://www.gettyimg.com/" rel="self" type="application/rss+xml" />

 
                <item>
                <title><![CDATA[【HD Live Performances】WEB-RiP - Usher - Super Bowl LVIII Halftime Show [Apple Music Web 1080 - Dolby Digital]]]></title>
                <link><![CDATA[https://sharemania.us/threads/usher-super-bowl-lviii-halftime-show-apple-music-web-1080-dolby-digital.237591/]]></link>
                <description><![CDATA[<article>
<blockquote class="messageText SelectQuoteContainer ugc baseHtml">
<div style="text-align: center"><img src="https://i.imgur.com/fhQmgKI.gif" class="bbCodeImage LbImage" alt="[​IMG]" data-url="https://i.imgur.com/fhQmgKI.gif" style=""><br>
<br>
​</div>
<div class="ToggleTriggerAnchor bbCodeSpoilerContainer">
<button type="button" class="button bbCodeSpoilerButton ToggleTrigger Tooltip JsOnly" data-target="> .SpoilerTarget"><span>Spoiler: <span class="SpoilerTitle">Apple Music</span></span></button>
<div class="SpoilerTarget bbCodeSpoilerText">
<div class="bbCodeBlock bbCodeCode">
<div class="type">Code:</div>
<pre>Format                                   : MPEG-4
Format profile                           : Base Media
Codec ID                                 : isom (isom/dby1/iso2/avc1/mp41)
File size                                : 958 MiB
Duration                                 : 13 min 14 s
Overall bit rate                         : 10.1 Mb/s
Movie name                               : Super Bowl LVIII Halftime Show (Live)
Performer                                : USHER
Genre                                    : R&amp;B/Soul
ContentType                              : Music Video
Recorded date                            : 2024-02-11
ISRC                                     : QZTLA2426355

Video
ID                                       : 1
Format                                   : AVC
Format/Info                              : Advanced Video Codec
Format profile                           : High@L4
Format settings                          : CABAC / 4 Ref Frames
Format settings, CABAC                   : Yes
Format settings, Reference frames        : 4 frames
Codec ID                                 : avc1
Codec ID/Info                            : Advanced Video Coding
Duration                                 : 13 min 14 s
Bit rate                                 : 9 721 kb/s
Width                                    : 1 920 pixels
Height                                   : 1 080 pixels
Display aspect ratio                     : 16:9
Frame rate mode                          : Constant
Frame rate                               : 29.970 (30000/1001) FPS
Color space                              : YUV
Chroma subsampling                       : 4:2:0
Bit depth                                : 8 bits
Scan type                                : Progressive
Bits/(Pixel*Frame)                       : 0.156
Stream size                              : 921 MiB (96%)
Title                                    : Core Media Video
Color range                              : Limited
Color primaries                          : BT.709
Transfer characteristics                 : BT.709
Matrix coefficients                      : BT.709
Codec configuration box                  : avcC

Audio
ID                                       : 2
Format                                   : AC-3
Format/Info                              : Audio Coding 3
Commercial name                          : Dolby Digital
Codec ID                                 : ac-3
Duration                                 : 13 min 14 s
Bit rate mode                            : Constant
Bit rate                                 : 384 kb/s
Channel(s)                               : 6 channels
Channel layout                           : L R C LFE Ls Rs
Sampling rate                            : 48.0 kHz
Frame rate                               : 31.250 FPS (1536 SPF)
Compression mode                         : Lossy
Stream size                              : 36.4 MiB (4%)
Title                                    : Core Media Audio
Language                                 : English
Service kind                             : Complete Main
Default                                  : Yes
Alternate group                          : 1</pre>
</div><div style="text-align: center">​</div></div>
</div><div style="text-align: center"><br>
<br>
<div class="bbCodeBlock bbCodeVfcHH HiddenContent">
<div class="attribution type">Hidden Content:</div>
<blockquote>You must reply before you can see the hidden data contained here.</blockquote>
</div></div>
<div class="messageTextEndMarker">&nbsp;</div>
</blockquote>
</article>]]></description>
                <author><![CDATA[fstambuk]]></author>
                </item>

                
                <item>
                <title><![CDATA[【Singles (lossy)】Dolby Atmos - Raisa - Nyaman Tak Cukup]]></title>
                <link><![CDATA[https://sharemania.us/threads/raisa-nyaman-tak-cukup.237594/]]></link>
                <description><![CDATA[<article>
<blockquote class="messageText SelectQuoteContainer ugc baseHtml">
thanks
<div class="messageTextEndMarker">&nbsp;</div>
</blockquote>
</article>]]></description>
                <author><![CDATA[andammm777]]></author>
                </item>

                
                <item>
                <title><![CDATA[【Singles (lossy)】Dolby Atmos - Lyodra - Kalau Bosan]]></title>
                <link><![CDATA[https://sharemania.us/threads/lyodra-kalau-bosan.237595/]]></link>
                <description><![CDATA[<article>
<blockquote class="messageText SelectQuoteContainer ugc baseHtml">
<img src="https://is1-ssl.mzstatic.com/image/thumb/Music126/v4/43/ce/d2/43ced2b9-e5a0-488a-e5f7-453241c523c8/23UMGIM04532.rgb.jpg/1200x1200bf-60.jpg" class="bbCodeImage LbImage" alt="[​IMG]" data-url="https://is1-ssl.mzstatic.com/image/thumb/Music126/v4/43/ce/d2/43ced2b9-e5a0-488a-e5f7-453241c523c8/23UMGIM04532.rgb.jpg/1200x1200bf-60.jpg" style=""><br>
<br>
<span style="font-size: 18px"><b>Artist: Raisa<br>
Album: Nyaman Tak Cukup - Single<br>
Country: Indonesia</b></span><br>
<br>
<br>
<br>
<div class="bbCodeBlock bbCodeVfcHH HiddenContent">
<div class="attribution type">Hidden Content:</div>
<blockquote>You must reply before you can see the hidden data contained here.</blockquote>
</div>
<div class="bbCodeBlock bbCodeVfcHH HiddenContent">
<div class="attribution type">Hidden Content:</div>
<blockquote>You must reply before you can see the hidden data contained here.</blockquote>
</div>
<div class="messageTextEndMarker">&nbsp;</div>
</blockquote>
</article>]]></description>
                <author><![CDATA[andammm777]]></author>
                </item>

                
                <item>
                <title><![CDATA[【HD Live Performances】FEED - Usher - Super Bowl LVIII (2024) Halftime Show HDTV AVC 1080i HDTV FEED MPA2.0 FLAC 5.1 &amp; FLAC 7.1-HBO]]></title>
                <link><![CDATA[https://sharemania.us/threads/usher-super-bowl-lviii-2024-halftime-show-hdtv-avc-1080i-hdtv-feed-mpa2-0-flac-5-1-flac-7-1-hbo.237589/]]></link>
                <description><![CDATA[<article>
<blockquote class="messageText SelectQuoteContainer ugc baseHtml">
<img src="https://is1-ssl.mzstatic.com/image/thumb/Music125/v4/5f/4f/68/5f4f6824-86e0-0efa-a2c9-9fbd104b0470/21UMGIM62551.rgb.jpg/1200x1200bb.jpg" class="bbCodeImage LbImage" alt="[​IMG]" data-url="https://is1-ssl.mzstatic.com/image/thumb/Music125/v4/5f/4f/68/5f4f6824-86e0-0efa-a2c9-9fbd104b0470/21UMGIM62551.rgb.jpg/1200x1200bb.jpg" style=""><br>
<br>
<span style="font-size: 18px"><b>Artist: Lyodra<br>
Album: Kalau Bosan - Single<br>
Country: Indonesia</b></span><br>
<br>
<br>
<br>
<div class="bbCodeBlock bbCodeVfcHH HiddenContent">
<div class="attribution type">Hidden Content:</div>
<blockquote>You must reply before you can see the hidden data contained here.</blockquote>
</div>
<div class="bbCodeBlock bbCodeVfcHH HiddenContent">
<div class="attribution type">Hidden Content:</div>
<blockquote>You must reply before you can see the hidden data contained here.</blockquote>
</div>
<div class="messageTextEndMarker">&nbsp;</div>
</blockquote>
</article>]]></description>
                <author><![CDATA[theslothsidd]]></author>
                </item>

                
                <item>
                <title><![CDATA[【Singles (lossy)】Dolby Atmos - Tiara Andini &amp; Arsy Widianto - Lagu Pernikahan Kita]]></title>
                <link><![CDATA[https://sharemania.us/threads/tiara-andini-arsy-widianto-lagu-pernikahan-kita.237592/]]></link>
                <description><![CDATA[<article>
<blockquote class="messageText SelectQuoteContainer ugc baseHtml">
<div style="text-align: center"><img src="https://i.imgur.com/G4ODy29.png" class="bbCodeImage LbImage" alt="[​IMG]" data-url="https://i.imgur.com/G4ODy29.png" style=""> <br>
<br>
​</div>
<div class="ToggleTriggerAnchor bbCodeSpoilerContainer">
<button type="button" class="button bbCodeSpoilerButton ToggleTrigger Tooltip JsOnly" data-target="> .SpoilerTarget"><span>Spoiler: <span class="SpoilerTitle">Media Info</span></span></button>
<div class="SpoilerTarget bbCodeSpoilerText"><div style="text-align: left">General<br>
Unique ID : 312325653283621157720025273304060056104 (0xEAF7BB992B4249E56F15630B3D2CD228)<br>
Complete name : Usher Super Bowl LVIII (2024) Halftime Show HDTV AVC 1080i HDTV FEED MPA2.0 FLAC 5.1 &amp; FLAC 7.1.mkv<br>
Format : Matroska<br>
Format version : Version 4<br>
File size : 3.51 GiB<br>
Duration : 13 min 15 s<br>
Overall bit rate mode : Variable<br>
Overall bit rate : 37.9 Mb/s<br>
Writing application : Lavf58.76.100<br>
Writing library : Lavf58.76.100<br>
ErrorDetectionType : Per level 1<br>
<br>
Video<br>
ID : 1<br>
Format : AVC<br>
Format/Info : Advanced Video Codec<br>
Format profile : Main@L4.1<br>
Format settings : CABAC / 3 Ref Frames<br>
Format settings, CABAC : Yes<br>
Format settings, Reference frames : 3 frames<br>
Codec ID : V_MPEG4/ISO/AVC<br>
Duration : 13 min 14 s<br>
Bit rate mode : Constant<br>
Nominal bit rate : 30.0 Mb/s<br>
Width : 1 920 pixels<br>
Height : 1 080 pixels<br>
Display aspect ratio : 16:9<br>
Frame rate mode : Constant<br>
Frame rate : 25.000 FPS<br>
Color space : YUV<br>
Chroma subsampling : 4:2:0<br>
Bit depth : 8 bits<br>
Scan type : Interlaced<br>
Scan type, store method : Separated fields<br>
Scan order : Top Field First<br>
Bits/(Pixel*Frame) : 0.578<br>
Default : Yes<br>
Forced : No<br>
Color range : Limited<br>
Color primaries : BT.709<br>
Transfer characteristics : BT.709<br>
Matrix coefficients : BT.709<br>
<br>
Audio #1<br>
ID : 2<br>
Format : MPEG Audio<br>
Format version : Version 1<br>
Format profile : Layer 2<br>
Codec ID : A_MPEG/L2<br>
Codec ID/Hint : MP2<br>
Duration : 13 min 15 s<br>
Bit rate mode : Constant<br>
Bit rate : 192 kb/s<br>
Channel(s) : 2 channels<br>
Sampling rate : 48.0 kHz<br>
Compression mode : Lossy<br>
Delay relative to video : -904 ms<br>
Stream size : 18.2 MiB (0%)<br>
Language : English<br>
Default : Yes<br>
Forced : No<br>
<br>
Audio #2<br>
ID : 3<br>
Format : FLAC<br>
Format/Info : Free Lossless Audio Codec<br>
Codec ID : A_FLAC<br>
Duration : 13 min 15 s<br>
Bit rate mode : Variable<br>
Channel(s) : 6 channels<br>
Channel layout : L R C LFE Lb Rb<br>
Sampling rate : 48.0 kHz<br>
Bit depth : 24 bits<br>
Compression mode : Lossless<br>
Delay relative to video : -888 ms<br>
Writing library : Lavf58.76.100<br>
Language : English<br>
Default : No<br>
Forced : No<br>
<br>
Audio #3<br>
ID : 4<br>
Format : FLAC<br>
Format/Info : Free Lossless Audio Codec<br>
Codec ID : A_FLAC<br>
Duration : 13 min 15 s<br>
Bit rate mode : Variable<br>
Channel(s) : 8 channels<br>
Channel layout : L R C LFE Lb Rb Ls Rs<br>
Sampling rate : 48.0 kHz<br>
Bit depth : 24 bits<br>
Compression mode : Lossless<br>
Delay relative to video : -888 ms<br>
Language : English<br>
Default : No<br>
Forced : No​</div></div>
</div><div style="text-align: center"><br>
<div class="bbCodeBlock bbCodeVfcHH HiddenContent">
<div class="attribution type">Hidden Content:</div>
<blockquote>You must reply before you can see the hidden data contained here.</blockquote>
</div></div>
<div class="messageTextEndMarker">&nbsp;</div>
</blockquote>
</article>]]></description>
                <author><![CDATA[andammm777]]></author>
                </item>

                
                <item>
                <title><![CDATA[【Singles (lossy)】Dolby Atmos - Tiara Andini - Flip It Up]]></title>
                <link><![CDATA[https://sharemania.us/threads/tiara-andini-flip-it-up.237590/]]></link>
                <description><![CDATA[<article>
<blockquote class="messageText SelectQuoteContainer ugc baseHtml">
thanks
<div class="messageTextEndMarker">&nbsp;</div>
</blockquote>
</article>]]></description>
                <author><![CDATA[andammm777]]></author>
                </item>

                
                <item>
                <title><![CDATA[【Requests】[REQ VID] - Sza - Kill Bill (Live at Grammy 2024) HDTV]]></title>
                <link><![CDATA[https://sharemania.us/threads/sza-kill-bill-live-at-grammy-2024-hdtv.237593/]]></link>
                <description><![CDATA[<article>
<blockquote class="messageText SelectQuoteContainer ugc baseHtml">
gracias
<div class="messageTextEndMarker">&nbsp;</div>
</blockquote>
</article>]]></description>
                <author><![CDATA[GABSEDP]]></author>
                </item>

                </channel></rss>